<svg xmlns="http://www.w3.org/2000/svg" xmlns:xlink="http://www.w3.org/1999/xlink" viewBox="0 0 155.63396 179.71062">
  <defs>
    <radialGradient xlink:href="#a" id="f" gradientUnits="userSpaceOnUse" gradientTransform="matrix(.0142 -1.5297 1.71535 .01591 -1033.5146 1628.7627)" cx="414.02301" cy="687.40204" fx="414.02301" fy="687.40204" r="86.830666"/>
    <linearGradient id="a">
      <stop offset="0" stop-color="#9558b2"/>
      <stop offset="1" stop-color="#fff" stop-opacity="0"/>
    </linearGradient>
    <radialGradient xlink:href="#b" id="e" gradientUnits="userSpaceOnUse" gradientTransform="matrix(1.72341 -.00186 .00163 1.51192 -998.84419 55.629142)" cx="580.789" cy="628.65375" fx="580.789" fy="628.65375" r="86.830666"/>
    <linearGradient id="b">
      <stop offset="0" stop-color="#cb3c33"/>
      <stop offset="1" stop-color="#fff" stop-opacity="0"/>
    </linearGradient>
    <radialGradient xlink:href="#c" id="d" gradientUnits="userSpaceOnUse" gradientTransform="matrix(-1.26566 1.227 -1.1253 -1.16075 1436.5452 1012.4852)" cx="499.3504" cy="645.45337" fx="499.3504" fy="645.45337" r="86.830666"/>
    <linearGradient id="c">
      <stop offset="0" stop-color="#389826"/>
      <stop offset="1" stop-color="#fff" stop-opacity="0"/>
    </linearGradient>
  </defs>
  <g transform="translate(2.4e-7 -872.65159)">
    <path d="M155.1753 1007.1697l-77.358322 44.6629-77.35831755-44.6629 3.9e-7-89.32565L77.816979 873.18121l77.358321 44.66284z" fill="#fff"/>
    <path d="M152.82938 1005.652l-75.072644 43.3432-75.072645-43.3432 4e-7-86.68644 75.0726456-43.34321 75.072643 43.34322z" fill="none" stroke="url(#d)" stroke-width="4.45108843"/>
    <path d="M152.82938 1005.652l-75.072644 43.3432-75.072645-43.3432 4e-7-86.68644 75.0726456-43.34321 75.072643 43.34322z" fill="none" stroke="url(#e)" stroke-width="4.45108843"/>
    <path d="M152.82938 1005.652l-75.072644 43.3432-75.072645-43.3432 4e-7-86.68644 75.0726456-43.34321 75.072643 43.34322z" fill="none" stroke="url(#f)" stroke-width="4.45108843"/>
    <path d="M155.1753 1007.1697l-77.358322 44.6629-77.35831755-44.6629 3.9e-7-89.32565L77.816979 873.18121l77.358321 44.66284z" fill="none" stroke="#1a1a1a" stroke-width=".91732138"/>
    <path style="line-height:125%;-inkscape-font-specification:'Comfortaa, Normal';text-align:start" d="M66.126631 910.18307q1.4163 0 2.54934.61373 1.156645.59013 1.817585 1.65235.684545 1.06223.684545 2.38411 0 1.25106-.684545 2.24247-.66094.99142-1.79398 1.53433 1.628745.4485 2.572945 1.62875.9442 1.15664.9442 2.92702 0 1.58153-.731755 2.8326-.731755 1.22746-2.03003 1.93561-1.27467.68454-2.92702.68454H60.50864q-.4721 0-.75536-.23605-.28326-.25965-.28326-.68454v-16.59432q0-.40129.259655-.66094.259655-.25966.66094-.25966h5.736016zm0 7.69524q1.439905 0 2.336895-.80258.920595-.82617.920595-2.24247 0-1.36909-.89699-2.12445t-2.3605-.75536H61.31121v5.92486h4.815421zm.401285 8.9699q1.723165 0 2.78539-.99141 1.08583-1.01502 1.08583-2.69097 0-1.60514-1.08583-2.54934-1.062225-.96781-2.78539-.96781H61.31121v7.19953h5.216706zM75.978399 916.62724q0-.40129.259655-.66094.259655-.25966.66094-.25966.401285 0 .637335.25966.259655.25965.259655.66094v11.07075q0 .40128-.259655.66094-.23605.25965-.637335.25965t-.66094-.25965q-.259655-.25966-.259655-.66094v-11.07075zm.920595-5.94846q.51931 0 .89699.35407.37768.35408.37768.9206 0 .54291-.37768.92059t-.920595.37768q-.542915 0-.920595-.37768-.354075-.37768-.354075-.92059 0-.56652.37768-.9206.37768-.35407.920595-.35407zM88.301685 915.58862q1.864795 0 3.35191.84978 1.487115.84978 2.336895 2.3605.873385 1.51072.873385 3.37552 0 1.86479-.84978 3.37551-.84978 1.48712-2.3605 2.3369-1.487115.84978-3.35191.84978-1.864795 0-3.375516-.84978-1.487115-.84978-2.336895-2.3369-.84978-1.51072-.84978-3.37551 0-1.8648.84978-3.37552.84978-1.51072 2.336895-2.3605 1.510721-.84978 3.375516-.84978zm0 1.65235q-1.345485 0-2.454921.63734-1.08583.63733-1.723165 1.77037-.61373 1.10944-.61373 2.52574 0 1.39269.61373 2.52573.637335 1.10944 1.723165 1.74677 1.109436.63734 2.454921.63734 1.36909 0 2.45492-.63734 1.08583-.63733 1.69956-1.74677.61373-1.13304.61373-2.52573 0-1.4163-.61373-2.52574-.61373-1.13304-1.69956-1.77037-1.08583-.63734-2.45492-.63734zM33.359036 931.48664q1.864795 0 3.281096.82617 1.4163.82618 2.21887 2.14806.165235.25965.165235.56652 0 .44849-.42489.70815-.18884.0944-.42489.0944-.259655 0-.495705-.11803-.212445-.14163-.354075-.37768-1.32188-2.07724-3.989246-2.10084-1.912005 0-3.02144.80257-1.109435.80257-1.109435 2.28968 0 2.76179 4.461345 3.35191 2.927021.42489 4.366926 1.79398 1.439905 1.36909 1.439905 3.61157 0 1.65235-.80257 2.8562-.80257 1.20386-2.195265 1.84119-1.392696.61373-3.115861.61373-2.242475 0-3.989245-.9442-1.723165-.9678-2.478525-2.59655-.09442-.16523-.09442-.37768 0-.33047.23605-.54291.259655-.23605.684545-.23605.28326 0 .51931.16523.259655.14163.37768.42489.542915 1.06223 1.79398 1.72317 1.27467.63733 2.950625.63733 1.93561 0 3.115861-.92059 1.18025-.9442 1.18025-2.62016 0-1.48711-1.109435-2.50213-1.085831-1.01501-3.281096-1.29827-2.73818-.33047-4.319715-1.69956-1.55793-1.3927-1.55793-3.39912 0-1.4163.75536-2.47853.778965-1.08583 2.12445-1.65235 1.36909-.59012 3.092255-.59012zM48.586845 937.12823q1.74677 0 3.092255.82618 1.345485.80257 2.07724 2.24247.75536 1.43991.75536 3.2811 0 .37768-.23605.61373-.23605.21244-.61373.21244h-9.536421q.18884 1.93561 1.51072 3.13947 1.32188 1.20385 3.304701 1.20385.84978 0 1.69956-.28326.873385-.30686 1.392695-.75536.306865-.23605.637335-.23605.259655 0 .51931.18884.306865.28326.306865.63734 0 .30686-.259655.54291-.778965.66094-1.98282 1.10944-1.203855.42489-2.31329.42489-1.888401 0-3.375516-.82618-1.487115-.84978-2.336895-2.33689-.826175-1.51072-.826175-3.39912 0-1.91201.778965-3.39912.80257-1.51072 2.195265-2.3369 1.4163-.84978 3.210281-.84978zm0 1.62875q-1.793981 0-2.974231 1.10943-1.18025 1.10944-1.439905 2.92702h8.639431q-.18884-1.81758-1.32188-2.92702-1.13304-1.10943-2.903415-1.10943zM63.39382 937.10463q.99141 0 1.55793.25965.590125.25966.590125.73176 0 .14163-.02361.21244-.09442.33047-.306865.4485-.18884.11802-.542915.11802-.212445 0-.731755-.0472-.18884-.0236-.56652-.0236-1.770375 0-2.903415.9442-1.109435.9442-1.109435 2.45492v7.05789q0 .42489-.23605.66094-.23605.23605-.66094.23605-.424891 0-.660941-.23605-.23605-.23605-.23605-.66094v-11.11795q0-.42489.23605-.66094.23605-.23605.660941-.23605.42489 0 .66094.23605.23605.23605.23605.66094v1.03862q.684545-.99141 1.74677-1.53433 1.062225-.54291 2.289685-.54291zM78.407338 937.31707q.495705.23605.495705.75536 0 .14163-.07081.33047l-5.169495 11.14156q-.306865.61373-.89699.61373-.56652 0-.84978-.61373l-5.24031-11.11795q-.07081-.14163-.07081-.33047 0-.49571.51931-.75536.165235-.0944.37768-.0944.23605 0 .42489.11802.212445.11803.306865.35408l4.53216 9.81968 4.48495-9.81968q.09442-.23605.306865-.35408.212445-.14163.4721-.14163.212445 0 .37768.0944zM81.776582 938.16685q0-.40128.259655-.66094.259655-.25965.66094-.25965.401285 0 .637335.25965.259655.25966.259655.66094v11.07075q0 .40128-.259655.66094-.23605.25965-.637335.25965t-.66094-.25965q-.259655-.25966-.259655-.66094v-11.07075zm.920595-5.94846q.51931 0 .89699.35408.37768.35407.37768.92059 0 .54292-.37768.9206t-.920595.37768q-.542915 0-.920595-.37768-.354075-.37768-.354075-.9206 0-.56652.37768-.92059.37768-.35408.920595-.35408zM93.745795 937.12823q2.950625 0 4.791815 2.26608.18884.21245.18884.49571 0 .37768-.401285.66094-.212445.14163-.448495.14163-.354075 0-.684545-.35408-.70815-.77896-1.55793-1.15664-.84978-.40129-1.8884-.40129-1.298275 0-2.31329.63734-1.015015.61373-1.581535 1.74677-.542915 1.13304-.542915 2.54934 0 1.39269.590125 2.52573.590125 1.10944 1.65235 1.74677 1.062225.63734 2.431315.63734 1.8884 0 3.045045-1.01502.306865-.25965.637335-.25965.28326 0 .51931.18884.33047.28326.33047.63733 0 .30687-.23605.51931-1.69956 1.58154-4.29611 1.58154-1.84119 0-3.3047-.84978-1.46351-.87339-2.31329-2.3605-.826175-1.51072-.826175-3.35191 0-1.8884.80257-3.37552.80257-1.51072 2.21887-2.3605t3.186675-.84978zM107.78376 937.12823q1.74677 0 3.09226.82618 1.34548.80257 2.07724 2.24247.75536 1.43991.75536 3.2811 0 .37768-.23605.61373-.23605.21244-.61373.21244h-9.53642q.18884 1.93561 1.51072 3.13947 1.32188 1.20385 3.3047 1.20385.84978 0 1.69956-.28326.87338-.30686 1.39269-.75536.30687-.23605.63734-.23605.25965 0 .51931.18884.30686.28326.30686.63734 0 .30686-.25965.54291-.77897.66094-1.98282 1.10944-1.20386.42489-2.31329.42489-1.8884 0-3.37552-.82618-1.48711-.84978-2.33689-2.33689-.82618-1.51072-.82618-3.39912 0-1.91201.77897-3.39912.80257-1.51072 2.19526-2.3369 1.4163-.84978 3.21028-.84978zm0 1.62875q-1.79398 0-2.97423 1.10943-1.18025 1.10944-1.4399 2.92702h8.63943q-.18884-1.81758-1.32188-2.92702-1.13304-1.10943-2.90342-1.10943zM121.22164 937.12823q1.55793 0 2.71458.54292 1.15664.51931 1.86479 1.46351.18884.30686.18884.54291 0 .40129-.37768.63734-.16523.11802-.44849.11802-.49571 0-.82618-.35407-1.15664-1.32188-3.16307-1.32188-1.29827 0-2.07724.54291-.77896.51931-.77896 1.32188 0 .84978.73175 1.36909.73176.49571 2.59655.80257 2.52574.42489 3.61157 1.3927 1.08583.9442 1.08583 2.3605 0 1.08583-.66094 1.93561-.63734.84978-1.79398 1.32188-1.15665.4721-2.62016.4721-1.46351 0-2.80899-.49571-1.34549-.4957-2.17166-1.39269-.23605-.28326-.23605-.54292 0-.40128.37768-.70815.28326-.21244.59012-.21244.40129 0 .68455.33047.56652.66094 1.48711 1.01501.9442.35408 2.07724.35408 1.65235 0 2.47853-.56652.82617-.56652.84978-1.48712 0-.84978-.82618-1.4163-.82617-.56652-2.62015-.84978-2.31329-.37768-3.46994-1.29827-1.13304-.9442-1.13304-2.26608 0-1.72317 1.32188-2.66737 1.34549-.9442 3.35191-.9442z" font-weight="400" font-size="23.60500145" font-family="Comfortaa" letter-spacing="0" word-spacing="0" fill="#1a1a1a"/>
    <rect width="5.0725923" height="21.763058" x="121.50735" y="973.21051" ry="1.5586603" fill="#1a1a1a"/>
    <rect ry=".63283807" y="992.29047" x="102.85331" height="9.719245" width="42.11673" fill="#1a1a1a"/>
    <circle r="2.4298112" cy="997.50482" cx="140.92035" fill="#9558b2"/>
    <circle r="2.4298112" cy="997.50482" cx="134.44086" fill="#389826"/>
    <circle r="2.4298112" cy="997.50482" cx="127.96136" fill="#cb3c33"/>
    <rect width="42.11673" height="9.719245" x="102.85331" y="979.33148" ry=".63283807" fill="#1a1a1a"/>
    <circle cx="140.92035" cy="984.54584" r="2.4298112" fill="#9558b2"/>
    <circle cx="134.44086" cy="984.54584" r="2.4298112" fill="#389826"/>
    <circle cx="127.96136" cy="984.54584" r="2.4298112" fill="#cb3c33"/>
    <rect width="42.11673" height="9.719245" x="102.85331" y="966.3725" ry=".63283807" fill="#1a1a1a"/>
    <circle cx="140.92035" cy="971.58685" r="2.4298112" fill="#9558b2"/>
    <circle cx="134.44086" cy="971.58685" r="2.4298112" fill="#389826"/>
    <circle cx="127.96136" cy="971.58685" r="2.4298112" fill="#cb3c33"/>
    <rect width="50.608406" height="6.4640555" x="11.718195" y="992.63562" ry="2.199024" fill="#1a1a1a"/>
    <rect width="46.993519" height="27.010517" x="13.525642" y="965.95007" ry="2.4272242" fill="#1a1a1a"/>
    <rect width="43.378632" height="24.932781" x="15.33309" y="966.9812" ry="2.2405143" fill="#fff"/>
    <ellipse ry="1.7439948" rx="1.7439947" cx="18.600546" cy="978.26483" fill="#9558b2"/>
    <ellipse ry="1.4406798" rx="1.4406799" cx="23.07423" cy="983.86505" fill="#4063d8"/>
    <ellipse ry="1.4406798" rx="1.4406799" cx="21.633635" cy="975.75647" fill="#cb3c33"/>
    <ellipse ry="1.7439948" rx="1.7439947" cx="27.092951" cy="982.815" fill="#9558b2"/>
    <ellipse ry="2.1610346" rx="2.1610343" cx="30.619038" cy="979.28571" fill="#4063d8"/>
    <circle cx="25.311094" cy="975.1731" r="1.326955" fill="#389826"/>
    <ellipse ry="1.4406798" rx="1.4406799" cx="42.940636" cy="985.9068" fill="#cb3c33"/>
    <circle cx="37.746452" cy="973.97723" r="1.6302408" fill="#9558b2"/>
    <circle cx="52.152378" cy="976.86481" r="1.6302408" fill="#cb3c33"/>
    <ellipse ry=".72035462" rx=".7203545" cx="34.258583" cy="981.18164" fill="#4063d8"/>
    <circle cx="47.074284" cy="978.14819" r=".94783342" fill="#cb3c33"/>
    <circle cx="52.910736" cy="982.99005" r=".79616135" fill="#4063d8"/>
    <circle cx="54.086193" cy="973.86053" r="1.1373942" fill="#389826"/>
    <circle cx="55.527084" cy="983.77759" r="1.1373942" fill="#9558b2"/>
    <circle cx="36.571289" cy="983.25256" r=".98572218" fill="#389826"/>
    <ellipse ry="1.2511191" rx="1.251119" cx="44.57082" cy="976.39813" fill="#4063d8"/>
    <circle cx="39.528309" cy="984.85675" r="1.1373942" fill="#9558b2"/>
    <ellipse ry="1.7060764" rx="1.7060766" cx="46.770939" cy="984.59424" fill="#389826"/>
    <circle cx="49.991055" cy="980.74408" r="1.9714736" fill="#389826"/>
    <circle cx="33.651897" cy="975.55225" r="1.8577195" fill="#cb3c33"/>
    <circle cx="28.154659" cy="976.66064" r=".98572218" fill="#cb3c33"/>
    <circle cx="41.537666" cy="974.64807" r="1.5544338" fill="#389826"/>
    <path d="M100.64041 983.24986l-8.030529-9.97931v6.65288h-20.07634v-6.65288l-8.03054 9.97931 8.03054 9.97931v-6.65287h20.07634v6.65287z" fill="#1a1a1a" fill-rule="evenodd"/>
  </g>
</svg>
